<?xml version="1.0" ?><svg fill="none" height="28" viewBox="0 0 28 28" width="28" xmlns="http://www.w3.org/2000/svg"><path d="M13 1.7998C13 1.3584 13.3574 1 13.8008 1H14.1992C14.6426 1 15 1.3584 15 1.7998V4.2002C15 4.6416 14.6426 5 14.1992 5H13.8008C13.3574 5 13 4.6416 13 4.2002V1.7998Z" fill="black"/><path clip-rule="evenodd" d="M14 21C17.8652 21 21 17.8662 21 14C21 10.1338 17.8652 7 14 7C10.1348 7 7 10.1338 7 14C7 17.8662 10.1348 21 14 21ZM14 19C16.7617 19 19 16.7617 19 14C19 11.2383 16.7617 9 14 9C11.2383 9 9 11.2383 9 14C9 16.7617 11.2383 19 14 19Z" fill="black" fill-rule="evenodd"/><path d="M5 13.7998C5 13.3584 4.64258 13 4.19922 13H1.80078C1.35742 13 1 13.3584 1 13.7998V14.2002C1 14.6416 1.35742 15 1.80078 15H4.19922C4.64258 15 5 14.6416 5 14.2002V13.7998Z" fill="black"/><path d="M26.1992 13C26.6426 13 27 13.3584 27 13.7998V14.2002C27 14.6416 26.6426 15 26.1992 15H23.8008C23.3574 15 23 14.6416 23 14.2002V13.7998C23 13.7373 23.0078 13.6768 23.0195 13.6191C23.0273 13.583 23.0371 13.5479 23.0508 13.5137C23.0938 13.4023 23.1602 13.3027 23.2461 13.2207C23.3906 13.084 23.5859 13 23.8008 13H26.1992Z" fill="black"/><path d="M22.9746 4.69238C22.6621 4.37988 22.1543 4.37988 21.8418 4.69238L20.1484 6.38672C20.1074 6.42773 20.0723 6.47266 20.041 6.51953C19.9805 6.61328 19.9434 6.71777 19.9258 6.8252C19.9102 6.91797 19.9102 7.0127 19.9277 7.10449C19.9355 7.14941 19.9492 7.19434 19.9648 7.23828C19.9766 7.27051 19.9902 7.30176 20.0078 7.33203C20.0312 7.37598 20.0605 7.41797 20.0938 7.45898L20.1484 7.51758L20.4316 7.80078C20.7441 8.11328 21.25 8.11328 21.5625 7.80078L23.2559 6.10645C23.3301 6.0332 23.3867 5.94824 23.4258 5.85742C23.4805 5.73145 23.5 5.59473 23.4863 5.45996C23.4668 5.2832 23.3906 5.11133 23.2559 4.97559L22.9746 4.69238Z" fill="black"/><path d="M6.38477 7.7998C6.69727 8.1123 7.20508 8.1123 7.51758 7.7998L7.79883 7.5166C7.95508 7.36035 8.0332 7.15527 8.0332 6.9502C8.0332 6.83008 8.00781 6.70996 7.95312 6.59961C7.91406 6.52246 7.86328 6.4502 7.79883 6.38574L6.10156 4.68848C5.79102 4.37598 5.2832 4.37598 4.9707 4.68848L4.6875 4.9707C4.62695 5.03125 4.57812 5.09863 4.54102 5.1709C4.48047 5.29102 4.45117 5.42285 4.45312 5.55469C4.45703 5.75391 4.53516 5.95117 4.6875 6.10254L6.38477 7.7998Z" fill="black"/><path d="M7.76367 19.915C7.45117 19.6025 6.94336 19.6025 6.63086 19.915L4.93555 21.6113C4.62305 21.9238 4.62305 22.4307 4.93555 22.7432L5.21875 23.0264C5.53125 23.3379 6.03711 23.3379 6.34961 23.0264L8.04492 21.3291C8.35742 21.0166 8.35742 20.5107 8.04492 20.1982L7.76367 19.915Z" fill="black"/><path d="M22.0586 23.3066C22.1289 23.3242 22.2031 23.3311 22.2754 23.3281C22.418 23.3223 22.5605 23.2783 22.6855 23.1953C22.7285 23.166 22.7695 23.1318 22.8086 23.0938L23.0898 22.8105C23.2402 22.6602 23.3184 22.4658 23.3242 22.2695C23.3301 22.0566 23.252 21.8418 23.0898 21.6797L21.3926 19.9824C21.2734 19.8633 21.127 19.79 20.9727 19.7617C20.7227 19.7148 20.4551 19.7891 20.2617 19.9824L19.9785 20.2646C19.8145 20.4287 19.7363 20.6455 19.7441 20.8604C19.752 21.0557 19.8301 21.248 19.9785 21.3965L21.6758 23.0938C21.7852 23.2021 21.918 23.2734 22.0586 23.3066Z" fill="black"/><path d="M13.2051 23.2637C13.0781 23.4062 13 23.5938 13 23.7998V26.2002C13 26.6416 13.3574 27 13.8008 27H14.1992C14.4551 27 14.6816 26.8818 14.8281 26.6973C14.9355 26.5605 15 26.3877 15 26.2002V23.7998C15 23.3584 14.6426 23 14.1992 23H13.8008C13.5645 23 13.3516 23.1016 13.2051 23.2637Z" fill="black"/></svg>